<svg width="1170" height="398" viewBox="0 0 1170 398" fill="none" xmlns="http://www.w3.org/2000/svg">
<g clip-path="url(#clip0_4_126)">
<g opacity="0.20">
<path d="M1776 225.159C1650.83 132.434 1325 -31.0361 1023 56.8807C645.5 166.777 450.5 225.159 123 150.464C-252.166 64.8976 -454.333 207.701 -606 260.36" stroke="#f7c5bc"/>
<path d="M-606 177.079C-480.833 84.3545 -225 -21.8546 77 66.0622C454.5 175.958 539 30.8613 1079.5 30.8613C1455.5 30.8613 1624.33 159.622 1776 212.28" stroke="#f7c5bc"/>
<path d="M1776 453.799C1650.83 361.074 1395 254.865 1093 342.782C715.5 452.678 631 307.581 90.5 307.581C-285.5 307.581 -454.333 436.342 -606 489" stroke="#f7c5bc"/>
</g>
</g>
<defs>
<clipPath id="clip0_4_126">
<rect width="1170" height="398" fill="#f7c5bc"/>
</clipPath>
</defs>
</svg>
