<svg width="40" height="42" viewBox="0 0 40 42" fill="none" xmlns="http://www.w3.org/2000/svg">
<g clip-path="url(#clip0_1659_23348)">
<path d="M25.1197 24.5233C25.0765 19.8782 24.7604 15.2464 24.1696 10.6345C23.8466 8.11285 23.4545 5.59786 23.0727 3.08287C22.9916 2.55034 22.8309 2.0427 23.0537 1.4969C23.3129 0.861516 23.7689 0.456729 24.446 0.32567C24.921 0.234427 25.4168 0.207884 25.9039 0.19793C29.5279 0.126595 33.1536 0.0668719 36.7776 0.00383121C37.0073 0.000513285 37.2388 -0.00280464 37.4686 0.00383121C38.7727 0.0419874 39.6122 0.939487 39.3825 2.17707C38.8988 4.78828 38.3754 7.3912 37.8192 9.98914C37.4305 11.8007 36.9953 13.604 36.5202 15.3957C35.9934 17.3881 35.432 19.3739 34.8222 21.3464C34.2142 23.3173 33.5682 25.2798 32.8686 27.2241C31.4107 31.2753 29.6954 35.2236 27.5397 38.9845C27.0353 39.8638 26.4722 40.7148 25.8745 41.5377C25.5671 41.9607 25.0506 42.1067 24.5185 41.9192C24.0176 41.7434 23.8103 41.3286 23.7671 40.8459C23.7447 40.5871 23.7551 40.32 23.7948 40.0612C24.1454 37.7519 24.5704 35.4526 24.8416 33.135C25.0368 31.4777 25.0558 29.7988 25.1093 28.1283C25.149 26.9272 25.1162 25.7244 25.1162 24.5217L25.1197 24.5233Z" fill="#fff"/>
<path d="M6.71808 0.163627C9.32984 0.108881 11.8621 0.0458404 14.3945 0.00436626C15.9059 -0.0205182 16.735 0.966565 16.4483 2.38996C15.9836 4.70919 15.6019 7.04667 15.0526 9.34765C14.2131 12.8746 13.2924 16.3833 12.3493 19.8854C11.4269 23.3095 10.2212 26.6523 8.917 29.9586C7.8875 32.5682 6.74226 35.1329 5.38628 37.6015C4.74198 38.7727 4.04758 39.919 3.35836 41.0671C3.22536 41.2877 3.02326 41.4801 2.82288 41.6543C2.45496 41.9745 2.01448 42.0989 1.54637 41.8949C1.08516 41.6941 0.832967 41.2894 0.850241 40.8298C0.874424 40.1994 1.00052 39.5723 1.10071 38.9469C1.28726 37.7723 1.51182 36.6044 1.67765 35.4282C2.19413 31.7486 2.31331 28.0458 2.2494 24.3414C2.20967 22.0221 2.11121 19.6963 1.89529 17.387C1.54464 13.646 1.09207 9.9117 0.646413 6.17903C0.499587 4.9431 0.24912 3.72045 0.0332004 2.49613C-0.165446 1.36803 0.570409 0.385928 1.79683 0.291367C3.01462 0.198465 4.23932 0.198465 5.46056 0.165286C5.90622 0.153673 6.3536 0.163627 6.71808 0.163627Z" fill="#fff"/>
</g>
<defs>
<clipPath id="clip0_1659_23348">
<rect width="39.4218" height="42" fill="white"/>
</clipPath>
</defs>
</svg>
