<svg width="241" height="241" viewBox="0 0 241 241" fill="none" xmlns="http://www.w3.org/2000/svg">
<circle cx="120.5" cy="120.212" r="120" fill="url(#paint0_linear_259_9043)"/>
<path d="M93.3609 127.583C94.7135 122.767 96.0391 118.087 97.3647 113.434C100.395 102.721 104.507 92.414 109.268 82.3504C110.35 80.0779 111.243 77.6973 112.352 75.4519C113.272 73.6123 114.57 71.9621 116.789 71.6375C117.871 71.4751 119.088 71.421 120.089 71.7998C121.847 72.4491 123.525 73.3688 125.121 74.3698C126.771 75.4249 127.096 77.2915 127.069 79.0499C127.015 85.9484 126.933 92.8469 126.636 99.7183C126.257 107.996 125.662 116.248 125.148 124.526C125.121 125.094 125.148 125.635 125.418 126.257C125.608 125.878 125.77 125.473 125.96 125.094C130.558 114.841 134.995 104.48 139.838 94.3348C143.544 86.5165 147.981 79.077 153.662 72.4491C155.528 70.2578 157.774 68.5534 160.668 67.8501C165.267 66.7409 169.028 68.6075 171.03 72.9631C172.815 76.8316 172.626 80.8354 171.922 84.8663C169.758 97.0401 165.754 108.7 162.237 120.495C159.289 130.396 156.34 140.298 153.635 150.28C151.065 159.721 150.253 169.406 150.767 179.172C150.848 180.742 151.146 182.311 151.606 183.798C152.228 185.854 153.58 186.152 154.69 184.34C156.556 181.337 158.342 178.226 159.721 174.979C164.97 162.616 169.136 149.901 173.004 137.051C173.491 135.455 173.924 133.859 174.411 132.263C175.331 129.314 178.496 127.718 181.445 128.692C182.743 129.125 183.528 129.99 183.447 131.37C183.366 132.615 183.257 133.886 182.933 135.076C179.984 145.275 177.062 155.474 173.978 165.619C172.058 171.868 169.758 177.982 166.214 183.528C164.05 186.91 161.453 189.831 157.828 191.779C152.228 194.809 145.383 192.915 141.542 189.02C137.592 185.043 135.699 180.119 134.698 174.763C133.426 167.918 133.101 160.993 133.615 154.04C134.238 145.87 135.482 137.755 137.755 129.882C141.353 117.411 145.275 105.021 149.063 92.6034C149.279 91.9271 149.495 91.2508 149.495 90.4392C148.9 91.3319 148.17 92.1706 147.737 93.1445C145.194 98.9338 142.651 104.75 140.189 110.594C136.97 118.222 133.967 125.932 130.613 133.48C129.314 136.402 127.42 139.134 125.446 141.677C123.065 144.815 120.441 145.059 117.005 143.138C113.759 141.353 112.244 138.35 111.08 135.076C109.62 131.045 109.079 126.852 109.403 122.605C110.08 114.273 110.891 105.94 111.676 97.6082C111.73 97.1753 111.838 96.7425 111.676 96.2014C111.27 97.2835 110.864 98.3657 110.485 99.4748C105.345 114.002 101.964 128.989 99.1231 144.112C98.0951 149.55 97.013 154.96 95.7956 160.344C95.3628 162.264 94.47 164.05 93.7125 165.89C92.901 167.837 91.4672 169.325 89.3841 169.569C88.0044 169.731 86.5976 169.569 85.245 170.191C85.0015 170.299 84.5146 169.92 84.1629 169.731C83.7571 169.515 83.4054 169.136 82.9996 169.055C79.5098 168.487 78.049 165.7 76.8316 162.995C73.3688 155.447 72.0432 147.439 71.7727 139.215C71.4751 130.18 71.908 121.198 72.6384 112.217C73.6934 99.4207 75.0461 86.6788 78.3465 74.2345C79.4286 70.2307 81.0518 66.3351 82.6479 62.4936C83.6489 60.113 85.9754 59.3014 88.329 58.5168C87.0846 63.8733 85.8943 69.0404 84.7039 74.2075C84.8122 74.2345 84.9204 74.2616 85.0286 74.2886C85.8402 71.1235 86.5706 67.9042 87.5174 64.766C88.0585 62.9806 88.8971 61.2492 89.6276 59.5178C89.9251 58.7874 90.4121 58.598 91.2507 58.7874C95.0111 59.6801 97.1212 62.0878 97.2565 66.795C97.4458 73.0983 97.4188 79.4016 97.1212 85.7049C96.8236 91.7107 96.0661 97.7164 95.471 103.722C94.7947 110.81 94.0642 117.871 93.3879 124.959C93.3067 125.743 93.3609 126.555 93.3609 127.583ZM141.812 145.329C141.867 145.167 141.948 145.005 142.002 144.815C145.762 131.451 149.468 118.087 153.256 104.723C155.609 96.4179 158.044 88.1667 160.398 79.8615C160.722 78.7253 160.858 77.5079 161.074 76.3447C160.885 76.3176 160.695 76.2635 160.533 76.2364C154.176 99.2043 145.762 121.631 141.812 145.329ZM165.781 83.1079C159.64 104.236 152.39 125.04 148.035 146.682C148.17 146.384 148.278 146.06 148.359 145.735C151.281 135.969 154.067 126.149 157.151 116.437C159.803 108.132 162.373 99.7995 164.185 91.2508C164.726 88.5455 165.24 85.8131 165.781 83.1079ZM156.935 79.8615C155.582 81.2953 142.354 124.715 141.84 129.395C146.817 113.164 151.903 96.3908 156.935 79.8615ZM99.8535 115.355C103.56 103.154 107.942 91.1426 113.623 79.6722C107.077 90.7909 103.316 102.992 99.8535 115.355ZM140.757 103.073C140.649 103.019 140.541 102.938 140.433 102.883C135.834 114.192 131.235 125.5 126.636 136.808C126.744 136.862 126.852 136.889 126.96 136.943C132.128 125.878 135.942 114.273 140.757 103.073ZM140.947 97.4188C134.86 109.024 130.613 121.252 125.283 133.02C125.418 133.074 125.554 133.129 125.689 133.21C130.748 121.334 135.834 109.43 140.947 97.4188ZM112.406 87.1928C107.996 95.9039 104.912 106.265 102.451 115.652C105.67 106.509 109.214 96.3096 112.406 87.1928ZM164.807 179.605C166.647 177.333 173.491 159.857 174.114 155.799C171.03 163.698 167.864 171.787 164.807 179.605ZM161.318 179.551C163.617 176.034 168.378 164.807 169.244 160.804C166.593 167.053 163.888 173.437 161.318 179.551ZM162.995 106.887C162.941 106.86 162.86 106.86 162.805 106.833C162.373 108.294 161.913 109.782 161.48 111.243C161.534 111.27 161.615 111.27 161.669 111.297C162.102 109.836 162.535 108.348 162.995 106.887Z" fill="white"/>
<defs>
<linearGradient id="paint0_linear_259_9043" x1="32.4038" y1="38.1876" x2="215.809" y2="192.201" gradientUnits="userSpaceOnUse">
<stop stop-color="#EC1659"/>
<stop offset="1" stop-color="#922BE2"/>
</linearGradient>
</defs>
</svg>
