<svg xmlns="http://www.w3.org/2000/svg" width="189.446" height="78.21" viewBox="0 0 189.446 78.21">
  <g id="Layer_2" data-name="Layer 2" transform="translate(-0.013 0.319)">
    <g id="Layer_1" data-name="Layer 1" transform="translate(0.013 -0.319)">
      <path id="Path_321031" data-name="Path 321031" d="M176.873,80.411a2.744,2.744,0,0,0-4.386,3.175,2.675,2.675,0,0,0,.511.695,2.739,2.739,0,0,0,3.875,0,2.675,2.675,0,0,0,.511-.695A2.744,2.744,0,0,0,176.873,80.411Z" transform="translate(-73.34 -33.723)" fill="#fff"/>
      <path id="Path_321032" data-name="Path 321032" d="M163.468,82.307a2.658,2.658,0,0,1-.8,1.935,2.739,2.739,0,0,1-3.933-3.807l.057-.063a2.739,2.739,0,0,1,4.679,1.935Z" transform="translate(-67.307 -33.701)" fill="#fff"/>
      <path id="Path_321033" data-name="Path 321033" d="M176.94,54.155H166.554a.993.993,0,0,1-.993-1.148l1.47-6.252H167l4.26-18.315H168.9a7.383,7.383,0,0,0-4.593,1.51,6.89,6.89,0,0,0-2.6,4.019L157.2,53.248a6.6,6.6,0,0,0,.758,4.966,3.313,3.313,0,0,1,5.638,2.36,3.268,3.268,0,0,1-.207,1.148,8.335,8.335,0,0,0,1.085.069h.9a3.317,3.317,0,1,1,6.4-1.24,3.29,3.29,0,0,1-.235,1.24h12.855c.2-.81.39-1.608.574-2.388.436-1.86.838-3.606,1.223-5.23Z" transform="translate(-66.874 -11.928)" fill="#fff"/>
      <path id="Path_321034" data-name="Path 321034" d="M215.982,36.088l-5.977,25.13a2.3,2.3,0,0,1-.276.522h8.417a2.775,2.775,0,0,0,.149-.522l5.983-25.13ZM217.7,28.36l-1.246,5.506h8.3L226,28.36Z" transform="translate(-89.324 -11.894)" fill="#fff"/>
      <path id="Path_321035" data-name="Path 321035" d="M252.28,42.144l-8.038,18.108h-5.006L243.685,42h-8.118L229.51,67.549h15.6c.063,0,.505-.086,1.332-.27a9.68,9.68,0,0,0,2.836-1.257,9.359,9.359,0,0,0,2.928-3.077l8.87-20.8Z" transform="translate(-97.747 -17.703)" fill="#fff"/>
      <path id="Path_321036" data-name="Path 321036" d="M307,44.357A6.252,6.252,0,0,0,301.884,42H295.8a17.282,17.282,0,0,0-11.735,5.047,16.234,16.234,0,0,0-4.828,12.091,8.675,8.675,0,0,0,2.3,5.919q2.262,2.48,7.464,2.475h14.543a.312.312,0,0,1,0-.075.407.407,0,0,1,.046-.172,2.705,2.705,0,0,0,.086-.333c.034-.144.086-.327.149-.574s.144-.5.224-.833.189-.718.316-1.148.264-.953.419-1.533.333-1.246.517-1.992H292.589q-3.209,0-4.306-1.866a5.788,5.788,0,0,1-.7-4.088A7.784,7.784,0,0,1,290.35,50.4a7.619,7.619,0,0,1,4.593-1.412h5.127a.131.131,0,0,1,0,.063.4.4,0,0,1-.034.149,1.762,1.762,0,0,0-.075.31c-.029.132-.08.3-.138.5s-.126.448-.2.735-.161.637-.264,1.033H294.6a4.635,4.635,0,0,0-3.353,1.958,3.6,3.6,0,0,0-.482,2.963,2.348,2.348,0,0,0,2.038,1.722h7.538a7.085,7.085,0,0,0,4.392-1.435,6.643,6.643,0,0,0,2.5-3.784.173.173,0,0,1,0-.075.677.677,0,0,0,.052-.184,2.3,2.3,0,0,1,.1-.385c.052-.166.109-.379.172-.626s.149-.574.253-.919l.344-1.3A5.874,5.874,0,0,0,307,44.357Z" transform="translate(-118.925 -17.7)" fill="#fff"/>
      <path id="Path_321037" data-name="Path 321037" d="M162.474,94.447a6.734,6.734,0,0,0-3.519-.947,6.855,6.855,0,0,0-3.542.947A7.073,7.073,0,0,0,152.863,97a7.148,7.148,0,0,0,2.549,9.732,6.849,6.849,0,0,0,3.542.947,6.937,6.937,0,0,0,2.263-.379q0,3.847-1.58,5.6t-5.219,1.774a11.563,11.563,0,0,1-4.938-.947,7.338,7.338,0,0,1-3.049-2.48,5.822,5.822,0,0,1-1.039-3.33,8,8,0,0,1,.333-2.3,2.624,2.624,0,0,1,.993-1.533,2.676,2.676,0,0,1,1.148-.4,6.707,6.707,0,0,1,1.631.069,2.044,2.044,0,0,0-1.062-1.676,2.687,2.687,0,0,0-1.206-.31,3.1,3.1,0,0,0,.683-1.722,13.036,13.036,0,0,0-.069-1.722,11.31,11.31,0,0,0-2.79,4.019A13.808,13.808,0,0,0,144,107.911a10.334,10.334,0,0,0,2.5,6.591,9.468,9.468,0,0,0,3.261,2.411,11.012,11.012,0,0,0,4.679.924,12.252,12.252,0,0,0,5.385-1.039,9.462,9.462,0,0,0,3.376-2.647,11.4,11.4,0,0,0,1.843-3.353,15.57,15.57,0,0,0,.758-3.238,22.307,22.307,0,0,0,.167-2.245V100.59A6.947,6.947,0,0,0,165.023,97,7.142,7.142,0,0,0,162.474,94.447Zm-3.519,8.526a2.337,2.337,0,1,1,1.676-.683,2.3,2.3,0,0,1-1.676.683Z" transform="translate(-61.33 -39.635)" fill="#fff"/>
      <path id="Path_321038" data-name="Path 321038" d="M258.52,92.929v8.434H253.8V91.89l-4.725,1.039v8.434h-4.719V91.89l-4.725,1.039v8.434H200.458V89.72a3.163,3.163,0,0,1-1.4,1.372,6.487,6.487,0,0,1-1.987.637,13.355,13.355,0,0,1-2.055.166h-1.608a6.89,6.89,0,0,0-3.542.947,7.269,7.269,0,0,0-2.589,2.543,7.1,7.1,0,0,0,0,7.16,7.194,7.194,0,0,0,2.578,2.572,6.838,6.838,0,0,0,3.445.942h2.406v2.457a5.868,5.868,0,0,1-.356,1.987,3.393,3.393,0,0,1-1.3,1.654,5.127,5.127,0,0,1-2.67.758,14.876,14.876,0,0,1-4.392-.643,6.212,6.212,0,0,0,2.572,2.055,9.008,9.008,0,0,0,3.5.781,8.4,8.4,0,0,0,3.565-.683,6.258,6.258,0,0,0,2.762-2.3,7.194,7.194,0,0,0,1.062-4.088v-1.987h60.893a3.7,3.7,0,0,0,1.418-.281.827.827,0,0,0,.471-.8V91.89Zm-67.467,6.051a2.337,2.337,0,1,1,.683,1.676A2.3,2.3,0,0,1,191.053,98.981Z" transform="translate(-79.351 -38.025)" fill="#fff"/>
      <path id="Path_321039" data-name="Path 321039" d="M49.281,16.681,42.834,4.624a3.244,3.244,0,1,1,5.718-3.037l8.09,15.1Z" transform="translate(-18.044 0.319)" fill="#fff"/>
      <path id="Path_321040" data-name="Path 321040" d="M88.9,16.817H81.54L89.63,1.723a3.254,3.254,0,0,1,5.741,3.066Z" transform="translate(-34.732 0.183)" fill="#fff"/>
      <path id="Path_321041" data-name="Path 321041" d="M81.264,36.539c-23.8,7.808-38.2,41.952-38.2,41.952C31.314,55.933,18.137,54.13,18.137,54.13c11.552-5.6,25.808,3.25,25.808,3.25C55.812,41.488,69.832,36.63,79.1,35.275a10.375,10.375,0,0,0-4.117-.855H10.455A10.444,10.444,0,0,0,.408,47.706l9.025,31.83a10.438,10.438,0,0,0,10.047,7.59H65.986A10.444,10.444,0,0,0,76,79.536l9.025-31.83A10.415,10.415,0,0,0,81.264,36.539Z" transform="translate(-0.013 -14.475)" fill="#fff"/>
    </g>
  </g>
</svg>
