<svg width="304" height="85" viewBox="0 0 304 85" fill="none" xmlns="http://www.w3.org/2000/svg">
<path d="M100.794 17.5376L113.941 10.1113V31.7662L96.6588 21.906C97.5846 20.0962 99.0043 18.5985 100.794 17.5376Z" fill="#EBC05E"/>
<path d="M167.888 21.906L150.975 31.8286L113.88 10.1113L127.644 2.31053C130.854 0.500751 134.742 0.563157 137.89 2.43534L164.369 18.3489C165.851 19.285 167.023 20.4707 167.888 21.906Z" fill="#EBC05E"/>
<path d="M151.037 31.8286L132.767 42.5L113.941 31.7662V10.1113L151.037 31.8286Z" fill="#C5943F"/>
<path d="M169.184 42.4376L132.52 63.9053L132.767 42.5L151.037 31.8286L169.184 42.4376Z" fill="#EBC05E"/>
<path d="M132.52 63.9053L169.184 42.4376L168.999 58.5383C168.937 62.2203 166.962 65.6526 163.752 67.4624L136.841 82.6895C135.421 83.5007 133.816 83.9376 132.273 84L132.52 63.9053Z" fill="#B27E30"/>
<path d="M169.369 27.3977L169.184 42.4376L150.975 31.8286L167.888 21.906C168.875 23.5286 169.431 25.4007 169.369 27.3977Z" fill="#B27E30"/>
<path d="M132.767 42.5L132.52 63.9053L113.941 74.7639V31.7662L132.767 42.5Z" fill="#B27E30"/>
<path d="M132.52 63.9053L132.273 84C130.298 84.0624 128.323 83.6256 126.595 82.5647L100.115 66.6511C96.9674 64.7789 95.054 61.3466 95.1157 57.6023L95.486 26.4617C95.486 24.8391 95.9181 23.2789 96.5971 21.906L113.88 31.7662V74.8263L132.52 63.9053Z" fill="#C5943F"/>
<path d="M40.2436 23.4038V36.0098C40.5523 35.6353 40.9843 35.2609 41.4164 34.8241C41.8484 34.3872 42.3422 34.0752 42.9595 33.7008C43.515 33.3887 44.1939 33.0767 44.9963 32.8895C45.737 32.7023 46.6629 32.5774 47.6504 32.5774C48.7615 32.5774 49.8725 32.7647 51.0452 33.2015C52.218 33.6383 53.2673 34.2 54.1931 35.0737C55.119 35.885 55.9214 36.9459 56.4769 38.194C57.0941 39.4421 57.4027 40.8774 57.4027 42.5624V60.9098H50.6132V45.5579C50.6132 44.6842 50.5514 43.8729 50.428 43.0617C50.3045 42.3128 50.1194 41.6263 49.749 41.0023C49.3787 40.4406 48.8849 39.9414 48.206 39.6293C47.527 39.3173 46.6011 39.1301 45.4901 39.1301C44.3174 39.1301 43.3915 39.3173 42.7126 39.6293C42.0336 39.9414 41.4781 40.4406 41.1078 41.0023C40.7374 41.6263 40.4905 42.2504 40.3671 43.0617C40.2436 43.8105 40.1819 44.6218 40.1819 45.5579L40.3054 60.9098H33.5158V23.4038H40.2436Z" fill="white"/>
<path d="M86.6596 43.2489C86.7213 43.8105 86.7831 44.3722 86.8448 44.9962C86.9065 45.5579 86.9065 46.2444 86.9065 46.8684V47.8669H67.6488C67.7105 48.491 67.834 49.115 67.8957 49.8015C68.0192 50.4256 68.2043 51.112 68.4512 51.7361C68.8833 52.6722 69.5005 53.5459 70.3029 54.2947C71.167 55.0436 72.3398 55.418 73.8211 55.418C75.3025 55.418 76.4753 55.0436 77.3394 54.2947C78.2035 53.5459 78.8207 52.6722 79.1911 51.7361H86.351C86.0424 53.0466 85.672 54.1699 85.1165 55.106C84.561 56.0421 84.0055 56.9158 83.3883 57.6023C82.771 58.2887 82.0304 58.9128 81.3514 59.3496C80.6107 59.7865 79.9318 60.1609 79.1911 60.4729C77.5246 61.1594 75.7346 61.4714 73.8829 61.4714C71.4139 61.409 69.2536 60.9098 67.3402 59.9113C66.5378 59.4744 65.7354 58.9128 64.933 58.2263C64.1306 57.5398 63.4516 56.6662 62.8344 55.6677C62.2172 54.6068 61.7234 53.4211 61.353 51.9233C60.9827 50.488 60.7975 48.803 60.7975 46.8684C60.7975 44.9338 60.9827 43.2489 61.353 41.8135C61.7234 40.3782 62.2172 39.1301 62.8344 38.0692C63.4516 37.0083 64.1306 36.1346 64.933 35.4481C65.7354 34.7617 66.5378 34.2 67.3402 33.7008C69.2536 32.6398 71.4139 32.0782 73.8829 32.0158C75.9197 32.0782 77.7714 32.515 79.5614 33.2639C80.3021 33.5759 81.0428 34.0128 81.7835 34.5744C82.5241 35.1361 83.2031 35.7601 83.8821 36.5714C84.4993 37.3827 85.1165 38.3188 85.6103 39.3797C86.1041 40.5654 86.4744 41.8135 86.6596 43.2489ZM79.7466 43.2489C79.5614 42.6248 79.3145 42.0632 79.0676 41.5015C78.8207 40.9398 78.3887 40.3782 77.9566 39.8789C77.4628 39.3797 76.9073 39.0053 76.2284 38.7556C75.5494 38.506 74.8087 38.3188 73.9446 38.3188C73.0805 38.3188 72.2781 38.4436 71.6608 38.7556C71.0436 39.0677 70.4264 39.4421 69.9326 39.8789C69.4388 40.3782 69.0684 40.8774 68.7598 41.5015C68.4512 42.1256 68.266 42.6872 68.0809 43.2489H79.7466Z" fill="white"/>
<path d="M11.2954 60.9098V29.5195H0C0 29.5195 0 28.5835 0 28.1466V24.0278C0 23.6534 0 22.6549 0 22.6549H28.8865C29.2569 22.6549 30.2445 22.6549 30.2445 22.6549V28.1466C30.2445 28.5211 30.2445 29.5195 30.2445 29.5195H18.9491V60.9098C18.9491 60.9098 18.0232 60.9098 17.6529 60.9098H12.5916C12.2212 60.9098 11.2954 60.9098 11.2954 60.9098Z" fill="white"/>
<path d="M218.377 46.8684C218.377 44.9338 218.562 43.2489 218.933 41.8135C219.303 40.3782 219.797 39.1301 220.414 38.0692C221.031 37.0083 221.71 36.1346 222.513 35.4481C223.315 34.7617 224.118 34.2 224.92 33.7008C226.833 32.6398 228.994 32.0782 231.463 32.0158C233.87 32.0782 236.03 32.6398 237.944 33.7008C238.746 34.1376 239.548 34.6992 240.351 35.4481C241.153 36.1346 241.832 37.0083 242.449 38.0692C243.067 39.1301 243.56 40.3782 243.931 41.8135C244.301 43.2489 244.486 44.9338 244.486 46.8684C244.486 48.803 244.301 50.488 243.931 51.9233C243.56 53.3586 243.067 54.6068 242.449 55.6677C241.832 56.7286 241.153 57.5398 240.351 58.2263C239.548 58.9128 238.746 59.4744 237.944 59.9113C236.03 60.9098 233.87 61.409 231.463 61.4714C228.994 61.409 226.833 60.9098 224.92 59.9113C224.118 59.4744 223.315 58.9128 222.513 58.2263C221.71 57.5398 221.031 56.6662 220.414 55.6677C219.797 54.6068 219.303 53.4211 218.933 51.9233C218.562 50.488 218.377 48.803 218.377 46.8684ZM231.401 38.5684C230.043 38.5684 228.932 38.818 228.13 39.3797C227.327 39.9414 226.648 40.6278 226.216 41.4391C225.784 42.2504 225.475 43.1865 225.352 44.1226C225.229 45.0586 225.105 45.9947 225.105 46.806C225.105 47.6173 225.167 48.491 225.352 49.4895C225.475 50.4256 225.784 51.3617 226.216 52.1729C226.648 52.9842 227.265 53.6707 228.13 54.2323C228.932 54.794 230.043 55.0436 231.401 55.0436C232.759 55.0436 233.87 54.794 234.672 54.2323C235.475 53.6707 236.154 52.9842 236.586 52.1729C237.018 51.3617 237.326 50.4256 237.45 49.4895C237.573 48.5534 237.697 47.6173 237.697 46.806C237.697 45.9947 237.635 45.1211 237.45 44.1226C237.326 43.1865 237.018 42.2504 236.586 41.4391C236.154 40.6278 235.536 39.9414 234.672 39.3797C233.87 38.8805 232.759 38.5684 231.401 38.5684Z" fill="url(#paint0_linear_0_1)"/>
<path d="M266.954 36.6962V23.4038H273.496V46.806C273.496 48.7406 273.311 50.4256 272.941 51.8609C272.57 53.2962 272.077 54.5444 271.459 55.6053C270.842 56.6662 270.163 57.5398 269.422 58.2263C268.682 58.9128 267.879 59.4744 267.077 59.9113C265.164 60.9098 263.003 61.409 260.658 61.4714C258.189 61.409 256.029 60.9098 254.115 59.9113C253.313 59.4744 252.51 58.9128 251.708 58.2263C250.905 57.5398 250.227 56.6662 249.609 55.6677C248.992 54.6068 248.498 53.4211 248.128 51.9233C247.758 50.488 247.572 48.803 247.572 46.8684C247.572 44.9338 247.758 43.2489 248.066 41.8135C248.437 40.3782 248.869 39.1301 249.424 38.0692C249.98 37.0083 250.659 36.1346 251.338 35.4481C252.078 34.7617 252.819 34.2 253.56 33.7008C255.288 32.6398 257.325 32.0782 259.608 32.0158C260.72 32.1406 261.831 32.3902 262.88 32.8271C263.806 33.2639 264.732 33.8256 265.657 34.6992C266.583 35.5105 267.386 36.7586 268.003 38.2564L266.954 36.6962ZM260.658 55.1684C262.016 55.1684 263.127 54.9188 263.929 54.3571C264.732 53.7955 265.41 53.109 265.843 52.2977C266.275 51.4865 266.583 50.5504 266.768 49.6143C266.892 48.6782 267.015 47.7421 267.015 46.9308C267.015 46.1195 266.954 45.2459 266.768 44.2474C266.645 43.3113 266.336 42.3752 265.843 41.5639C265.41 40.7526 264.732 40.0662 263.929 39.5045C263.127 38.9429 262.016 38.6932 260.658 38.6932C259.3 38.6932 258.189 38.9429 257.386 39.5045C256.584 40.0662 255.905 40.7526 255.473 41.5639C255.041 42.3752 254.732 43.3113 254.609 44.2474C254.485 45.1835 254.362 46.1195 254.362 46.9308C254.362 47.7421 254.424 48.6158 254.609 49.6143C254.732 50.5504 255.041 51.4865 255.473 52.2977C255.905 53.109 256.522 53.7955 257.386 54.3571C258.189 54.8564 259.3 55.1684 260.658 55.1684Z" fill="url(#paint1_linear_0_1)"/>
<path d="M303 60.9098H296.457V57.0406L297.692 55.418C297.075 56.9782 296.272 58.1639 295.346 58.9752C294.42 59.7865 293.433 60.4105 292.569 60.7226C291.519 61.1594 290.408 61.3466 289.297 61.4714C287.014 61.409 285.039 60.9098 283.249 59.9113C282.508 59.4744 281.767 58.9128 281.026 58.2263C280.286 57.5398 279.669 56.6662 279.113 55.6677C278.558 54.6068 278.064 53.4211 277.755 51.9233C277.385 50.488 277.261 48.803 277.261 46.8684C277.261 44.9338 277.447 43.2489 277.817 41.8135C278.187 40.3782 278.681 39.1301 279.298 38.0692C279.915 37.0083 280.594 36.1346 281.397 35.4481C282.199 34.7617 283.002 34.2 283.804 33.7008C285.717 32.6398 287.878 32.0782 290.347 32.0158C292.63 32.0158 294.606 32.3278 296.21 33.0143C297.815 33.7008 299.173 34.6992 300.222 35.9474C301.272 37.1955 302.012 38.7556 302.506 40.6278C303 42.5 303.247 44.5594 303.247 46.8684V60.9098H303ZM290.162 38.5684C288.804 38.5684 287.693 38.818 286.89 39.3797C286.088 39.9414 285.409 40.6278 284.977 41.4391C284.545 42.2504 284.236 43.1865 284.113 44.1226C283.989 45.0586 283.866 45.9947 283.866 46.806C283.866 47.6173 283.927 48.491 284.113 49.4895C284.236 50.4256 284.545 51.3617 284.977 52.1729C285.409 52.9842 286.026 53.6707 286.89 54.2323C287.693 54.794 288.804 55.0436 290.162 55.0436C291.519 55.0436 292.63 54.794 293.433 54.2323C294.235 53.6707 294.914 52.9842 295.346 52.1729C295.778 51.3617 296.087 50.4256 296.272 49.4895C296.396 48.5534 296.519 47.6173 296.519 46.806C296.519 45.8075 296.457 44.809 296.334 43.8105C296.21 42.812 295.902 41.9383 295.531 41.1271C295.099 40.3158 294.482 39.6917 293.618 39.1925C292.692 38.818 291.581 38.5684 290.162 38.5684Z" fill="url(#paint2_linear_0_1)"/>
<path d="M179.183 60.9098V24.0278C179.183 23.6534 179.306 23.2789 179.553 23.0293C179.8 22.7797 180.109 22.6549 180.479 22.6549H184.861C185.54 22.6549 186.096 23.0293 186.466 23.7158L196.898 43.2489L207.329 23.6534C207.699 22.9669 208.255 22.5925 208.934 22.5925H213.254C213.625 22.5925 213.995 22.7173 214.242 22.9669C214.489 23.2165 214.612 23.5286 214.612 23.9654V60.9098C214.612 60.9098 213.686 60.9098 213.254 60.9098H208.625C208.255 60.9098 207.329 60.9098 207.329 60.9098V36.1346L199.799 50.5504C199.428 51.3617 198.811 51.7361 198.009 51.7361H195.725C194.984 51.7361 194.367 51.3617 193.873 50.5504L186.405 36.1346V60.9098C186.405 60.9098 185.479 60.9098 185.108 60.9098H180.479C180.109 60.9098 179.183 60.9098 179.183 60.9098Z" fill="url(#paint3_linear_0_1)"/>
<defs>
<linearGradient id="paint0_linear_0_1" x1="218.391" y1="46.7537" x2="244.436" y2="46.7537" gradientUnits="userSpaceOnUse">
<stop stop-color="#FFD76E"/>
<stop offset="0.00826797" stop-color="#F6CD67"/>
<stop offset="0.0385624" stop-color="#DCAE51"/>
<stop offset="0.0702578" stop-color="#C79640"/>
<stop offset="0.1036" stop-color="#B88534"/>
<stop offset="0.1395" stop-color="#AF7A2D"/>
<stop offset="0.1829" stop-color="#AC772B"/>
<stop offset="0.3033" stop-color="#CC9D4A"/>
<stop offset="0.4238" stop-color="#E8BE63"/>
<stop offset="0.4902" stop-color="#F2CA6D"/>
<stop offset="0.5443" stop-color="#ECC368"/>
<stop offset="0.6225" stop-color="#DCB058"/>
<stop offset="0.715" stop-color="#C2913F"/>
<stop offset="0.778" stop-color="#AC772B"/>
<stop offset="0.818" stop-color="#B07C2F"/>
<stop offset="0.8666" stop-color="#BD8B39"/>
<stop offset="0.9198" stop-color="#D3A44A"/>
<stop offset="0.9757" stop-color="#F0C662"/>
<stop offset="1" stop-color="#FFD76E"/>
</linearGradient>
<linearGradient id="paint1_linear_0_1" x1="247.622" y1="42.4486" x2="273.502" y2="42.4486" gradientUnits="userSpaceOnUse">
<stop stop-color="#FFD76E"/>
<stop offset="0.00826797" stop-color="#F6CD67"/>
<stop offset="0.0385624" stop-color="#DCAE51"/>
<stop offset="0.0702578" stop-color="#C79640"/>
<stop offset="0.1036" stop-color="#B88534"/>
<stop offset="0.1395" stop-color="#AF7A2D"/>
<stop offset="0.1829" stop-color="#AC772B"/>
<stop offset="0.3033" stop-color="#CC9D4A"/>
<stop offset="0.4238" stop-color="#E8BE63"/>
<stop offset="0.4902" stop-color="#F2CA6D"/>
<stop offset="0.5443" stop-color="#ECC368"/>
<stop offset="0.6225" stop-color="#DCB058"/>
<stop offset="0.715" stop-color="#C2913F"/>
<stop offset="0.778" stop-color="#AC772B"/>
<stop offset="0.818" stop-color="#B07C2F"/>
<stop offset="0.8666" stop-color="#BD8B39"/>
<stop offset="0.9198" stop-color="#D3A44A"/>
<stop offset="0.9757" stop-color="#F0C662"/>
<stop offset="1" stop-color="#FFD76E"/>
</linearGradient>
<linearGradient id="paint2_linear_0_1" x1="277.129" y1="46.7537" x2="303.009" y2="46.7537" gradientUnits="userSpaceOnUse">
<stop stop-color="#FFD76E"/>
<stop offset="0.00826797" stop-color="#F6CD67"/>
<stop offset="0.0385624" stop-color="#DCAE51"/>
<stop offset="0.0702578" stop-color="#C79640"/>
<stop offset="0.1036" stop-color="#B88534"/>
<stop offset="0.1395" stop-color="#AF7A2D"/>
<stop offset="0.1829" stop-color="#AC772B"/>
<stop offset="0.3033" stop-color="#CC9D4A"/>
<stop offset="0.4238" stop-color="#E8BE63"/>
<stop offset="0.4902" stop-color="#F2CA6D"/>
<stop offset="0.5443" stop-color="#ECC368"/>
<stop offset="0.6225" stop-color="#DCB058"/>
<stop offset="0.715" stop-color="#C2913F"/>
<stop offset="0.778" stop-color="#AC772B"/>
<stop offset="0.818" stop-color="#B07C2F"/>
<stop offset="0.8666" stop-color="#BD8B39"/>
<stop offset="0.9198" stop-color="#D3A44A"/>
<stop offset="0.9757" stop-color="#F0C662"/>
<stop offset="1" stop-color="#FFD76E"/>
</linearGradient>
<linearGradient id="paint3_linear_0_1" x1="179.163" y1="41.8008" x2="214.621" y2="41.8008" gradientUnits="userSpaceOnUse">
<stop stop-color="#FFD76E"/>
<stop offset="0.00826797" stop-color="#F6CD67"/>
<stop offset="0.0385624" stop-color="#DCAE51"/>
<stop offset="0.0702578" stop-color="#C79640"/>
<stop offset="0.1036" stop-color="#B88534"/>
<stop offset="0.1395" stop-color="#AF7A2D"/>
<stop offset="0.1829" stop-color="#AC772B"/>
<stop offset="0.3033" stop-color="#CC9D4A"/>
<stop offset="0.4238" stop-color="#E8BE63"/>
<stop offset="0.4902" stop-color="#F2CA6D"/>
<stop offset="0.5443" stop-color="#ECC368"/>
<stop offset="0.6225" stop-color="#DCB058"/>
<stop offset="0.715" stop-color="#C2913F"/>
<stop offset="0.778" stop-color="#AC772B"/>
<stop offset="0.818" stop-color="#B07C2F"/>
<stop offset="0.8666" stop-color="#BD8B39"/>
<stop offset="0.9198" stop-color="#D3A44A"/>
<stop offset="0.9757" stop-color="#F0C662"/>
<stop offset="1" stop-color="#FFD76E"/>
</linearGradient>
</defs>
</svg>
