<?xml version="1.0" standalone="no"?>
<!DOCTYPE svg PUBLIC "-//W3C//DTD SVG 20010904//EN"
 "http://www.w3.org/TR/2001/REC-SVG-20010904/DTD/svg10.dtd">
<svg version="1.0" xmlns="http://www.w3.org/2000/svg"
 width="85.000000pt" height="85.000000pt" viewBox="0 0 85.000000 85.000000"
 preserveAspectRatio="xMidYMid meet">
<metadata>
Created by potrace 1.14, written by Peter Selinger 2001-2017
</metadata>
<g transform="translate(0.000000,85.000000) scale(0.100000,-0.100000)"
fill="#000000" stroke="none">
<path d="M359 816 c-109 -60 -236 -132 -254 -146 -46 -35 -48 -43 -52 -236 -3
-157 -1 -189 12 -212 21 -35 298 -202 345 -209 30 -3 57 9 181 79 164 93 178
103 190 135 14 38 15 374 0 400 -9 18 -110 93 -125 93 -2 0 -48 27 -102 60
-54 33 -110 60 -125 60 -14 0 -46 -11 -70 -24z"/>
</g>
</svg>
