<svg width="212" height="213" viewBox="0 0 212 213" fill="none" xmlns="http://www.w3.org/2000/svg">
<g clip-path="url(#clip0_2291_2939)">
<path d="M204.387 116.346L183.333 100.074C182.199 99.2608 180.742 100.563 181.552 101.702C184.953 106.583 190.621 115.207 189.164 119.601C183.171 137.337 165.518 178.505 125.677 188.268C80.8152 199.333 38.3828 181.272 28.5035 176.715C25.9122 175.251 25.5883 176.39 26.2361 163.861C26.2361 162.721 24.9405 161.908 23.9687 162.396C21.3774 163.861 17.8144 167.115 17.4905 173.624C17.3285 177.366 17.6524 180.132 18.3003 182.085C18.7861 183.875 21.3774 183.875 22.0253 182.085C22.835 179.644 25.7502 175.902 27.8557 176.715C29.1513 177.204 30.4469 177.854 31.7426 178.505C46.4806 186.804 90.5325 208.283 130.536 195.754C156.287 187.618 171.834 164.837 180.904 144.822C183.981 138.802 185.762 133.432 187.058 129.201C187.868 126.923 188.516 124.645 189.002 122.692C190.621 118.299 194.184 116.997 203.902 117.811C204.711 118.299 205.197 116.997 204.387 116.346Z" fill="#201F11"/>
<path d="M168.596 213H43.4041C19.4347 213 0 193.474 0 169.391V43.6089C0 19.5264 19.4347 0 43.4041 0H168.434C192.403 0 211.838 19.5264 211.838 43.6089V169.228C212 193.474 192.565 213 168.596 213ZM43.4041 2.27807C20.7303 2.27807 2.26738 20.8281 2.26738 43.6089V169.228C2.26738 192.009 20.7303 210.559 43.4041 210.559H168.434C191.108 210.559 209.571 192.009 209.571 169.228V43.6089C209.571 20.8281 191.108 2.27807 168.434 2.27807H43.4041Z" fill="#201F11"/>
<path d="M41.1374 42.7969V91.1246H25.4277V42.7969H41.1374ZM35.9549 91.1246V78.107H43.7287C45.0244 78.107 46.482 77.9443 47.7776 77.7816C49.0733 77.6189 50.3689 77.1307 51.5026 76.3171C52.6363 75.5035 53.608 74.5272 54.2558 73.0627C54.9037 71.5983 55.3895 69.6456 55.3895 67.2048C55.3895 64.764 55.0656 62.8114 54.2558 61.3469C53.608 59.8824 52.6363 58.7434 51.5026 58.0925C50.3689 57.2789 49.0733 56.9535 47.7776 56.628C46.482 56.4653 45.0244 56.3026 43.7287 56.3026H35.9549V43.1223H44.3766C48.5874 43.1223 52.3124 43.6105 55.7135 44.7495C58.9526 45.8885 61.8678 47.5157 64.1351 49.4684C66.4025 51.5837 68.184 54.0245 69.4797 57.1162C70.6134 60.0452 71.2612 63.4623 71.2612 67.2048C71.2612 70.9474 70.6134 74.3645 69.4797 77.2934C68.346 80.2224 66.5645 82.8259 64.1351 84.9413C61.8678 87.0566 58.9526 88.5211 55.7135 89.6601C52.4743 90.7992 48.5874 91.2873 44.3766 91.2873H35.9549V91.1246Z" fill="#201F11"/>
<path d="M84.3799 89.8216C81.4647 88.5199 79.1973 86.5673 77.5778 84.1265C75.9582 81.6857 75.1484 78.7567 75.1484 75.3396C75.1484 72.7361 75.6343 70.458 76.4441 68.3426C77.2539 66.2273 78.5495 64.6001 80.1691 63.1356C81.7886 61.6711 83.894 60.6948 86.1614 59.8812C88.5908 59.0676 91.1821 58.7422 94.2592 58.7422C98.3081 58.7422 101.547 59.3931 104.3 60.5321C107.054 61.6711 109.159 63.6238 110.455 65.9019C111.912 68.3426 112.56 71.1089 112.56 74.6887C112.56 75.3396 112.56 75.8278 112.56 76.4786C112.56 77.1295 112.56 77.6177 112.398 78.1058H82.5984V71.597H100.09L97.4983 74.6887C97.8222 74.2006 97.9842 73.8751 98.1461 73.387C98.3081 72.8988 98.4701 72.5734 98.4701 72.2479C98.4701 71.1089 98.3081 70.1326 97.9842 69.4817C97.6603 68.6681 97.1744 68.1799 96.3646 67.6918C95.7168 67.2036 94.907 67.0409 93.9353 67.0409C92.9636 67.0409 92.1538 67.2036 91.506 67.5291C90.8581 67.8545 90.3723 68.3427 89.8864 68.9935C89.4005 69.6444 89.0766 70.458 88.9147 71.597C88.7527 72.5734 88.5908 73.8751 88.5908 75.3396C88.5908 76.9668 88.7527 78.2685 89.2386 79.4076C89.7244 80.5466 90.3723 81.3602 91.182 82.0111C91.9918 82.662 93.1255 82.9874 94.2592 82.9874C95.8788 82.9874 97.3364 82.662 98.3081 82.1738C99.4418 81.6857 100.252 80.8721 100.737 79.8957L112.884 81.8484C111.265 85.2655 108.835 87.869 105.92 89.4962C102.843 91.1234 99.2798 91.937 94.907 91.937C90.8581 91.7743 87.2951 91.1234 84.3799 89.8216Z" fill="#201F11"/>
<path d="M130.214 82.6658C130.537 82.9912 130.861 83.3166 131.347 83.6421C131.833 83.8048 132.319 83.9675 132.967 83.9675C133.777 83.9675 134.748 83.8048 135.396 83.3166C136.206 82.9912 136.854 82.3403 137.34 81.5267C137.825 80.7131 138.149 79.5741 138.149 78.1096L139.283 82.1776C139.283 84.1302 138.797 85.9202 137.825 87.3846C136.854 88.8491 135.396 89.9881 133.777 90.639C131.995 91.4526 130.052 91.7781 127.946 91.7781C125.841 91.7781 124.059 91.4526 122.278 90.639C120.496 89.8254 119.201 88.8491 118.067 87.2219C117.095 85.7574 116.447 83.9675 116.447 81.6894C116.447 79.7368 116.933 77.9469 117.905 76.4824C118.877 75.0179 120.334 73.8789 122.116 73.0653C123.897 72.2517 126.165 71.9263 128.918 71.9263C130.537 71.9263 132.157 72.089 133.615 72.4144C135.072 72.7399 136.53 73.0653 137.663 73.5535C138.797 74.0416 139.769 74.6925 140.579 75.3434V80.7131C139.769 80.0622 138.797 79.4114 137.502 79.0859C136.206 78.5978 134.91 78.435 133.453 78.435C132.643 78.435 131.833 78.5978 131.347 78.7605C130.861 78.9232 130.375 79.2486 130.214 79.5741C130.052 79.8995 129.89 80.3877 129.89 80.8758C129.89 81.6894 129.89 82.1776 130.214 82.6658ZM118.877 61.8376C121.144 61.024 123.573 60.2104 126.327 59.3969C129.08 58.5833 131.995 58.2578 135.072 58.2578C137.987 58.2578 140.741 58.746 143.17 59.5596C145.599 60.3732 147.543 61.6749 149 63.1394C150.458 64.7666 151.106 66.7192 151.106 68.9973V91.1272H138.473V72.4144C138.473 71.7635 138.311 71.2754 138.149 70.7872C137.987 70.2991 137.663 69.8109 137.178 69.4855C136.692 69.16 136.206 68.8346 135.558 68.5091C134.91 68.3464 134.1 68.1837 133.129 68.1837C131.833 68.1837 130.537 68.3464 129.08 68.6719C127.622 68.9973 126.327 69.3227 125.355 69.6482C124.221 69.9736 123.573 70.2991 123.087 70.6245L118.877 61.8376Z" fill="#201F11"/>
<path d="M171.188 37.2656V91.1258H157.746V37.2656H171.188Z" fill="#201F11"/>
<path d="M38.3842 95.3594V135.063H25.4277V95.3594H38.3842ZM34.0114 135.063V124.323H40.4896C41.6233 124.323 42.757 124.161 43.8907 123.998C45.0244 123.835 45.9961 123.347 46.9678 122.859C47.9396 122.208 48.7494 121.395 49.2352 120.093C49.883 118.954 50.045 117.327 50.045 115.211C50.045 113.096 49.7211 111.469 49.2352 110.33C48.5874 109.191 47.9396 108.214 46.9678 107.563C45.9961 106.912 45.0244 106.587 43.8907 106.424C42.757 106.262 41.6233 106.099 40.4896 106.099H34.0114V95.3594H40.9755C44.3766 95.3594 47.4537 95.8475 50.207 96.6611C52.9602 97.6375 55.2276 98.9392 57.1711 100.566C59.1145 102.194 60.5721 104.309 61.5439 106.75C62.5156 109.191 63.0015 111.957 63.0015 115.048C63.0015 118.14 62.5156 120.906 61.5439 123.347C60.5721 125.788 59.1145 127.903 57.1711 129.531C55.2276 131.158 52.9602 132.459 50.207 133.436C47.4537 134.412 44.3766 134.738 40.9755 134.738H34.0114V135.063Z" fill="#201F11"/>
<path d="M78.2262 135.06H67.5371V109.025H78.2262V135.06ZM84.2185 119.113C83.7327 118.788 83.0849 118.625 82.2751 118.625C81.6273 118.625 80.9794 118.788 80.3316 119.113C79.6838 119.439 79.1979 120.089 78.712 120.903C78.3881 121.717 78.0642 122.693 78.0642 123.995L75.9588 119.113C75.9588 116.998 76.4447 115.208 77.2545 113.581C78.0642 111.953 79.1979 110.652 80.6555 109.675C82.1131 108.699 83.5707 108.211 85.1903 108.211C86.162 108.211 86.9718 108.374 87.9435 108.862C88.7533 109.35 89.4011 109.838 89.725 110.489L85.1903 120.089C85.1903 119.764 84.8664 119.439 84.2185 119.113Z" fill="#201F11"/>
<path d="M103.652 109.031H93.125V135.066H103.652V109.031Z" fill="#201F11"/>
<path d="M117.743 109.031L122.764 121.073L127.946 109.031H139.445L122.764 138.809L106.244 109.031H117.743Z" fill="#201F11"/>
<path d="M147.542 134.086C145.112 132.947 143.331 131.483 141.873 129.367C140.578 127.415 139.93 124.974 139.93 122.045C139.93 119.929 140.254 117.977 140.901 116.35C141.549 114.722 142.683 113.258 143.979 112.119C145.274 110.98 147.056 110.004 148.999 109.515C150.943 108.865 153.21 108.539 155.639 108.539C158.879 108.539 161.632 109.027 163.899 110.004C166.167 110.98 167.786 112.444 168.92 114.397C170.053 116.35 170.701 118.79 170.701 121.557C170.701 122.045 170.701 122.533 170.701 123.021C170.701 123.509 170.701 123.997 170.539 124.323H146.084V118.953H160.498L158.393 121.557C158.555 121.231 158.879 120.906 158.879 120.418C159.04 120.092 159.04 119.767 159.04 119.441C159.04 118.465 158.879 117.814 158.555 117.163C158.231 116.512 157.907 116.024 157.259 115.699C156.773 115.373 156.125 115.211 155.315 115.211C154.506 115.211 153.858 115.373 153.372 115.536C152.886 115.861 152.4 116.187 152.076 116.675C151.752 117.163 151.429 117.977 151.267 118.79C151.105 119.604 150.943 120.743 150.943 121.882C150.943 123.184 151.105 124.323 151.429 125.299C151.752 126.276 152.238 126.926 153.048 127.415C153.696 127.903 154.668 128.228 155.639 128.228C156.935 128.228 158.069 128.065 159.04 127.577C160.012 127.089 160.66 126.438 161.146 125.625L171.187 127.252C169.73 130.018 167.786 132.133 165.357 133.598C162.927 134.9 159.85 135.713 156.287 135.713C152.886 135.713 149.971 135.225 147.542 134.086Z" fill="#201F11"/>
<ellipse cx="98.3886" cy="99.8196" rx="5.26356" ry="5.28839" fill="#201F11"/>
</g>
<defs>
<clipPath id="clip0_2291_2939">
<rect width="212" height="213" fill="white"/>
</clipPath>
</defs>
</svg>
