<svg width="211" height="212" viewBox="0 0 211 212" fill="none" xmlns="http://www.w3.org/2000/svg">
<g clip-path="url(#clip0_1280_3541)">
<path d="M203.604 115.719L182.581 99.5207C181.413 98.7432 179.986 100.039 180.765 101.076C184.139 105.87 189.848 114.553 188.291 118.829C182.322 136.452 164.674 177.401 125.095 187.12C80.4553 198.134 38.1515 180.122 28.2893 175.587C25.6939 174.161 25.4344 175.198 26.0832 162.758C26.0832 161.592 24.7856 160.814 23.8772 161.332C21.2819 162.758 17.7782 165.998 17.3889 172.477C17.2591 176.235 17.5187 178.956 18.1675 180.9C18.6866 182.714 21.2819 182.714 21.9307 180.9C22.7093 178.438 25.6939 174.809 27.7702 175.587C29.0679 176.105 30.3655 176.753 31.6632 177.401C46.3268 185.694 90.1878 207.076 130.156 194.506C155.85 186.472 171.292 163.795 180.375 143.839C183.49 137.878 185.177 132.565 186.474 128.288C187.253 126.086 187.902 123.753 188.421 121.809C189.978 117.403 193.612 116.108 203.214 117.015C203.993 117.663 204.382 116.367 203.604 115.719Z" fill="#404553"/>
<path d="M167.918 212H43.2122C19.3352 212 0 192.562 0 168.589V43.4108C0 19.4377 19.3352 0 43.2122 0H167.788C191.665 0 211 19.4377 211 43.4108V168.46C211.26 192.562 191.795 212 167.918 212ZM43.2122 2.20293C20.6328 2.20293 2.20603 20.7335 2.20603 43.4108V168.46C2.20603 191.137 20.6328 209.538 43.2122 209.538H167.788C190.367 209.538 208.794 191.137 208.794 168.46V43.4108C208.794 20.7335 190.367 2.33252 167.788 2.33252H43.2122V2.20293Z" fill="#ED1C24"/>
<path d="M41.0059 42.6333V90.7091H25.3042V42.6333H41.0059ZM35.8153 90.7091V77.7507H43.6012C44.8989 77.7507 46.3263 77.6211 47.624 77.4915C48.9217 77.3619 50.2193 76.8436 51.3872 76.0661C52.5551 75.2886 53.4635 74.2519 54.1123 72.8265C54.7611 71.401 55.2802 69.4573 55.2802 66.9952C55.2802 64.5331 55.0207 62.5893 54.1123 61.1639C53.4635 59.7384 52.5551 58.5722 51.3872 57.9243C50.2193 57.1467 48.9217 56.758 47.624 56.4988C46.3263 56.3692 44.8989 56.2397 43.6012 56.2397H35.8153V42.8925H44.2501C48.4026 42.8925 52.1658 43.4108 55.5397 44.4475C58.7839 45.6137 61.6388 47.1688 63.9746 49.1125C66.1806 51.1859 67.9973 53.648 69.295 56.758C70.4629 59.6088 71.1117 63.1076 71.1117 66.736C71.1117 70.3643 70.4629 73.8631 69.295 76.714C68.1271 79.5648 66.4401 82.1565 63.9746 84.3595C61.7685 86.4328 58.7839 87.8582 55.5397 89.0245C52.2956 90.1908 48.4026 90.5795 44.2501 90.5795H35.8153V90.7091Z" fill="#404553"/>
<path d="M84.0884 89.4132C81.2336 88.1173 78.8978 86.1736 77.3406 83.7115C75.7834 81.2493 74.875 78.3985 74.875 75.0293C74.875 72.4376 75.3941 70.2347 76.1727 68.0317C76.9513 65.9584 78.2489 64.2738 79.9359 62.8484C81.4931 61.4229 83.6991 60.3863 85.9051 59.6088C88.3707 58.8313 90.966 58.4425 93.9506 58.4425C97.9734 58.4425 101.218 59.0904 103.943 60.2567C106.668 61.4229 108.744 63.3667 110.042 65.5696C111.469 68.0317 112.118 70.753 112.118 74.2518C112.118 74.8997 112.118 75.4181 112.118 76.066C112.118 76.7139 112.118 77.2322 111.988 77.621H82.2717V71.1418H99.6604L97.065 74.2518C97.3246 73.7335 97.5841 73.4743 97.7139 72.956C97.8436 72.4376 97.9734 72.1784 97.9734 71.7897C97.9734 70.6234 97.8436 69.7163 97.4543 69.0684C97.1948 68.2909 96.6757 67.7726 95.8971 67.2542C95.2483 66.7359 94.4697 66.6063 93.4316 66.6063C92.5232 66.6063 91.6148 66.7359 90.966 67.1247C90.3172 67.5134 89.7981 67.9022 89.4088 68.5501C88.8898 69.198 88.6302 69.9755 88.5005 71.1418C88.3707 72.0489 88.2409 73.3447 88.2409 74.8997C88.2409 76.4547 88.3707 77.7506 88.8898 78.9168C89.4088 80.0831 90.0577 80.8606 90.8363 81.5085C91.6149 82.1564 92.7827 82.4156 93.9506 82.4156C95.5078 82.4156 97.065 82.1564 97.9734 81.6381C99.1413 81.1198 99.9199 80.3423 100.439 79.4352L112.507 81.3789C110.95 84.7481 108.484 87.3398 105.63 89.0244C102.515 90.5794 99.0115 91.4865 94.5995 91.4865C90.5767 91.3569 86.9433 90.709 84.0884 89.4132Z" fill="#404553"/>
<path d="M129.766 82.286C130.026 82.6748 130.415 82.934 130.934 83.1931C131.453 83.3227 131.842 83.4523 132.491 83.4523C133.27 83.4523 134.308 83.3227 134.957 82.8044C135.735 82.5452 136.384 81.8973 136.903 80.9902C137.422 80.2127 137.682 79.0464 137.682 77.621L138.85 81.6381C138.85 83.5819 138.331 85.3961 137.422 86.8215C136.514 88.2469 134.957 89.4132 133.4 90.0611C131.583 90.8386 129.636 91.2274 127.56 91.2274C125.484 91.2274 123.667 90.9682 121.85 90.0611C120.034 89.2836 118.736 88.2469 117.698 86.6919C116.789 85.2665 116.141 83.4523 116.141 81.2494C116.141 79.3056 116.66 77.4914 117.568 76.066C118.476 74.6406 120.034 73.4743 121.721 72.6968C123.537 71.9193 125.743 71.5306 128.468 71.5306C130.026 71.5306 131.713 71.6601 133.14 72.0489C134.567 72.3081 135.995 72.6968 137.163 73.2151C138.331 73.7335 139.239 74.3814 140.018 75.0293V80.3423C139.239 79.6944 138.201 79.0464 136.903 78.7873C135.606 78.2689 134.308 78.1393 132.88 78.1393C132.102 78.1393 131.323 78.2689 130.804 78.3985C130.285 78.5281 129.896 78.9169 129.636 79.176C129.507 79.5648 129.377 79.9535 129.377 80.4719C129.377 81.2494 129.377 81.7677 129.766 82.286ZM118.476 61.5526C120.682 60.775 123.148 59.9975 125.873 59.0905C128.598 58.3129 131.583 57.9242 134.567 57.9242C137.422 57.9242 140.277 58.4425 142.613 59.22C145.079 59.9975 147.025 61.2934 148.452 62.7188C149.88 64.2738 150.529 66.2176 150.529 68.5501V90.5794H137.941V72.0489C137.941 71.401 137.812 70.8826 137.682 70.4939C137.552 69.9755 137.163 69.5868 136.773 69.198C136.254 68.9389 135.865 68.5501 135.216 68.2909C134.567 68.1614 133.789 68.0318 132.751 68.0318C131.453 68.0318 130.155 68.1614 128.728 68.5501C127.171 68.6797 125.873 68.9389 124.835 69.3276C123.667 69.7164 123.018 69.9755 122.629 70.2347L118.476 61.5526Z" fill="#404553"/>
<path d="M170.513 37.0612V90.7091H157.147V37.0612H170.513Z" fill="#404553"/>
<path d="M38.2809 94.8557V134.379H25.4341V94.8557H38.2809ZM33.8689 134.379V123.753H40.3572C41.5251 123.753 42.5632 123.623 43.7311 123.364C44.899 123.105 45.8074 122.716 46.8455 122.198C47.7539 121.55 48.6622 120.773 49.0515 119.477C49.7004 118.31 49.8301 116.755 49.8301 114.682C49.8301 112.609 49.5706 110.924 49.0515 109.888C48.4027 108.721 47.7539 107.814 46.8455 107.166C45.9372 106.518 44.899 106.259 43.7311 106C42.5632 105.87 41.5251 105.741 40.3572 105.741H33.8689V95.1149H40.7465C44.1204 95.1149 47.2348 95.6332 49.9599 96.4107C52.685 97.3178 55.0208 98.6137 56.8375 100.298C58.784 101.853 60.2114 104.056 61.2496 106.389C62.2877 108.721 62.677 111.572 62.677 114.682C62.677 117.792 62.1579 120.513 61.2496 122.976C60.3412 125.438 58.784 127.511 56.8375 129.066C54.891 130.621 52.685 131.917 49.9599 132.954C47.2348 133.861 44.1204 134.249 40.7465 134.249H33.8689V134.379Z" fill="#767C89"/>
<path d="M77.9895 134.379H67.3486V108.462H77.9895V134.379ZM83.9587 118.57C83.4396 118.31 82.7908 118.051 82.0122 118.051C81.3634 118.051 80.7146 118.181 80.0657 118.57C79.4169 118.958 78.8978 119.477 78.5085 120.384C78.249 121.161 77.8597 122.198 77.8597 123.494L75.7834 118.699C75.7834 116.626 76.3025 114.812 77.0811 113.257C77.8597 111.702 79.0276 110.406 80.455 109.369C81.8825 108.462 83.3099 107.944 84.9968 107.944C85.9052 107.944 86.8136 108.073 87.7219 108.592C88.5005 109.11 89.1494 109.499 89.5387 110.147L84.9968 119.736C84.8671 119.218 84.6075 118.829 83.9587 118.57Z" fill="#767C89"/>
<path d="M103.294 108.462H92.7827V134.379H103.294V108.462Z" fill="#767C89"/>
<path d="M117.309 108.462L122.369 120.384L127.56 108.462H138.98L122.369 138.137L105.889 108.462H117.309Z" fill="#767C89"/>
<path d="M147.025 133.472C144.56 132.306 142.873 130.88 141.316 128.807C140.018 126.863 139.369 124.401 139.369 121.55C139.369 119.477 139.629 117.533 140.278 115.848C140.926 114.293 142.094 112.738 143.392 111.702C144.69 110.535 146.506 109.628 148.453 109.11C150.399 108.462 152.605 108.203 155.071 108.203C158.315 108.203 161.04 108.721 163.246 109.628C165.452 110.535 167.139 112.09 168.307 114.034C169.475 115.978 170.124 118.44 170.124 121.161C170.124 121.68 170.124 122.068 170.124 122.587C170.124 123.105 170.124 123.494 169.994 123.883H145.598V118.57H160.002L157.926 121.161C158.055 120.902 158.445 120.513 158.445 119.995C158.575 119.736 158.575 119.347 158.575 119.088C158.575 118.181 158.445 117.533 158.055 116.885C157.796 116.237 157.407 115.719 156.758 115.46C156.239 115.071 155.59 114.941 154.811 114.941C154.033 114.941 153.384 115.071 152.865 115.2C152.346 115.46 151.956 115.848 151.567 116.367C151.308 116.885 150.918 117.663 150.789 118.44C150.659 119.218 150.529 120.384 150.529 121.55C150.529 122.846 150.659 124.012 151.048 124.919C151.308 125.826 151.827 126.474 152.605 126.993C153.254 127.511 154.162 127.77 155.201 127.77C156.498 127.77 157.666 127.641 158.575 127.122C159.483 126.604 160.132 125.956 160.651 125.178L170.643 126.733C169.215 129.455 167.269 131.528 164.803 133.083C162.338 134.379 159.353 135.156 155.72 135.156C152.346 135.027 149.361 134.509 147.025 133.472Z" fill="#767C89"/>
<path d="M97.9734 104.704C100.84 104.704 103.164 102.325 103.164 99.3912C103.164 96.4569 100.84 94.0782 97.9734 94.0782C95.1066 94.0782 92.7827 96.4569 92.7827 99.3912C92.7827 102.325 95.1066 104.704 97.9734 104.704Z" fill="#767C89"/>
</g>
<defs>
<clipPath id="clip0_1280_3541">
<rect width="211" height="212" fill="white"/>
</clipPath>
</defs>
</svg>
